<svg xmlns="http://www.w3.org/2000/svg" viewBox="0 0 16.539 16.539"><g fill="#030104"><path d="M15.436.68H1.104C.495.68 0 1.177 0 1.791V11.97c0 .614.495 1.111 1.104 1.111h5.498s-.965 2.223-3.612 2.223v.556h10.281v-.556c-2.72 0-3.335-2.223-3.335-2.223h5.501c.608 0 1.102-.497 1.102-1.111V1.791A1.109 1.109 0 0 0 15.436.68zm-.08 10.6H1.182V1.861h14.174v9.419z"/><path d="M7.155 8.41L4.503 6.565v-.023l2.652-1.845V3.468L3.649 6.055v.998L7.155 9.64zm5.834-2.39L9.483 3.468v1.229l2.711 1.845v.023L9.483 8.41v1.23l3.506-2.553z"/></g></svg>